<svg xmlns="http://www.w3.org/2000/svg" width="24" height="24" viewBox="0 0 24 24"><g transform="translate(-1326 -472)"><rect class="a" width="24" height="24" transform="translate(1326 472)"/><path class="b" d="M8.475,14.525,7.048,15.91a1.994,1.994,0,0,1-2.822-2.819l3.66-3.665a1.985,1.985,0,0,1,2.733-.072l.1.081a.806.806,0,1,0,1.129-1.152,2.215,2.215,0,0,0-.145-.169,3.6,3.6,0,0,0-4.91.177L3.081,11.956a3.61,3.61,0,0,0,5.1,5.1l1.395-1.361a.806.806,0,0,0-1.1-1.168ZM17.093,3.056a3.622,3.622,0,0,0-5.1,0L10.595,4.417a.806.806,0,0,0,1.1,1.168L13.094,4.2a1.994,1.994,0,0,1,2.822,2.819l-3.66,3.665a1.985,1.985,0,0,1-2.733.072l-.1-.081A.806.806,0,1,0,8.3,11.827,2.216,2.216,0,0,0,8.483,12a3.606,3.606,0,0,0,4.91-.177l3.668-3.665A3.614,3.614,0,0,0,17.093,3.056Z" transform="translate(1327.871 473.995)"/></g></svg>
