<svg xmlns="http://www.w3.org/2000/svg" xmlns:xlink="http://www.w3.org/1999/xlink" width="1420" height="756" viewBox="0 0 1420 756"><defs><style>.a{fill:#e7e7e9;}.b{clip-path:url(#a);}.c,.d{fill:#182c37;}.c{opacity:0.02;}.d{opacity:0.05;}</style><clipPath id="a"><rect class="a" width="1420" height="756" rx="24"/></clipPath></defs><g class="b"><circle class="c" cx="71.72" cy="71.72" r="71.72" transform="translate(1268.274 809.171) rotate(-30)"/><circle class="c" cx="47.646" cy="47.646" r="47.646" transform="translate(-38.904 272.239) rotate(-34)"/><circle class="c" cx="39.283" cy="39.283" r="39.283" transform="matrix(0.809, -0.588, 0.588, 0.809, 81.823, 455.15)"/><circle class="c" cx="53.5" cy="53.5" r="53.5" transform="translate(1320 248)"/><circle class="c" cx="55.798" cy="55.798" r="55.798" transform="translate(83.962 9.359) rotate(30)"/><circle class="c" cx="74.5" cy="74.5" r="74.5" transform="translate(-13 625)"/><circle class="c" cx="41" cy="41" r="41" transform="translate(1273 552)"/><path class="d" d="M76.131,63.763,64.712,43.72A30.329,30.329,0,0,0,68.5,29.357,29.293,29.293,0,0,0,38.74-.469,31.045,31.045,0,0,0,8.262,30.086,29.328,29.328,0,0,0,11.7,44.362L-.2,64.688a4.323,4.323,0,0,0-.047,4.32,4.181,4.181,0,0,0,3.713,2.1l12.348-.15L21.973,81.5a4.37,4.37,0,0,0,3.717,2.111l.6-.007a4.438,4.438,0,0,0,3.166-2.151l8.475-14.42,8.131,14.348a4.171,4.171,0,0,0,3.116,2.032l.6-.007a4.4,4.4,0,0,0,3.026-1.244,3.885,3.885,0,0,0,.742-.915l6.408-10.686,12.348-.15a4.425,4.425,0,0,0,3.769-2.2A4.323,4.323,0,0,0,76.131,63.763ZM25.8,70.971l-3.753-6.38a4.18,4.18,0,0,0-3.632-2.069l-7.443.09,6.28-10.771a29.247,29.247,0,0,0,15.265,7.75ZM38.122,51.286a20.924,20.924,0,0,1-21.255-21.3A22.175,22.175,0,0,1,38.637,8.157a20.924,20.924,0,0,1,21.255,21.3,22.175,22.175,0,0,1-21.77,21.825ZM57.567,62.047a4.426,4.426,0,0,0-3.682,2.158l-3.906,6.473-6.4-11.35a31.236,31.236,0,0,0,15.412-8.121l6.025,10.622Z" transform="translate(1310.272 818.063) rotate(-30)"/><path class="d" d="M39.961-.517,11.418-.148A11.775,11.775,0,0,0-.146,11.409L-.585,45.635A11.065,11.065,0,0,0,10.687,56.9l28.544-.369a5.887,5.887,0,0,0,5.782-5.778L45.6,5.113A5.532,5.532,0,0,0,39.961-.517ZM5.563,11.335a5.887,5.887,0,0,1,5.782-5.778l28.544-.369-.365,28.522-28.544.369A11.391,11.391,0,0,0,5.25,35.75Zm5.2,39.857a5.532,5.532,0,0,1-5.636-5.631,5.887,5.887,0,0,1,5.782-5.778l28.544-.369L39.3,50.822Zm6.147-34.3,11.418-.148a2.944,2.944,0,0,0,2.891-2.889A2.766,2.766,0,0,0,28.4,11.039l-11.418.148a2.944,2.944,0,0,0-2.891,2.889A2.766,2.766,0,0,0,16.907,16.892Z" transform="translate(-7.753 274.195) rotate(-34)"/><path class="d" d="M45.2-.153a30.747,30.747,0,0,0-5.108-.379,31.2,31.2,0,0,0-16.56,5.038A29.944,29.944,0,0,0,7.1.023,31.171,31.171,0,0,0,1.98.538,2.431,2.431,0,0,0-.007,2.915l-.371,28.21a2.284,2.284,0,0,0,.8,1.81,2.317,2.317,0,0,0,1.925.5,25.324,25.324,0,0,1,19.383,4.232l.281.161.259,0a2.15,2.15,0,0,0,1.65-.022l.259,0,.285-.168a26.192,26.192,0,0,1,19.5-5.007,2.426,2.426,0,0,0,2.788-2.387l.371-28.21A2.275,2.275,0,0,0,45.2-.153ZM20.824,31.407A29.856,29.856,0,0,0,6.73,28.116l-2.357.031L4.683,4.639a20.538,20.538,0,0,1,2.357-.031A25.108,25.108,0,0,1,21.123,8.651Zm21.254-3.667-2.357.031a30.952,30.952,0,0,0-14.185,3.667l.3-22.85a26.193,26.193,0,0,1,14.2-4.419,20.539,20.539,0,0,1,2.357-.031Zm2.629,9.719a30.748,30.748,0,0,0-5.108-.379,31.2,31.2,0,0,0-16.56,5.038,29.93,29.93,0,0,0-16.433-4.6,31.172,31.172,0,0,0-5.12.514A2.438,2.438,0,0,0-.067,39,2.387,2.387,0,0,0-.5,40.763a2.288,2.288,0,0,0,2.733,1.821,25.324,25.324,0,0,1,19.383,4.232,2.362,2.362,0,0,0,2.734-.036,26.172,26.172,0,0,1,19.5-4.748,2.427,2.427,0,0,0,2.782-1.894,2.308,2.308,0,0,0-.391-1.752A2.28,2.28,0,0,0,44.707,37.46Z" transform="matrix(0.809, -0.588, 0.588, 0.809, 103.861, 458.465)"/><path class="d" d="M41.953-.508,3.227-.039A3.327,3.327,0,0,0-.039,3.236L-.657,55.01a3.139,3.139,0,0,0,3.188,3.2l3.227-.039L5.72,61.4a3.139,3.139,0,0,0,3.188,3.2h0a3.327,3.327,0,0,0,3.266-3.275l.039-3.236,29.044-.352a9.981,9.981,0,0,0,9.8-9.825l.464-38.831A9.418,9.418,0,0,0,41.953-.508Zm-10.3,51.892L5.836,51.7l.541-45.3,25.817-.313ZM44.6,47.991a3.327,3.327,0,0,1-3.266,3.275l-3.227.039L38.648,6l3.227-.039a3.139,3.139,0,0,1,3.188,3.2Z" transform="translate(1334.931 287.591) rotate(-30)"/><path class="d" d="M56.28,52.666,38.824,23.056,38.634,7.18l3.347.041A3.256,3.256,0,0,0,45.289,3.9,3.451,3.451,0,0,0,41.9.508L15.123.183A3.256,3.256,0,0,0,11.815,3.5,3.451,3.451,0,0,0,15.2,6.9l3.347.041.19,15.876L1.986,52.009a10.094,10.094,0,0,0,.089,10.083,10.329,10.329,0,0,0,8.761,5.16l36.821.446a9.756,9.756,0,0,0,8.64-4.949,10.1,10.1,0,0,0-.151-10.083ZM25,25.439a3.3,3.3,0,0,0,.449-1.639l-.2-16.782L31.94,7.1l.2,16.782a3.426,3.426,0,0,0,.489,1.684l2.939,5.07-13.39-.162ZM50.57,59.309a3.252,3.252,0,0,1-2.859,1.643L10.89,60.506a3.443,3.443,0,0,1-2.9-1.713,3.365,3.365,0,0,1-.04-3.356l10.391-18.3L39.6,37.4,50.53,55.986a3.365,3.365,0,0,1,.04,3.356ZM22.339,43.9a3.256,3.256,0,0,0-3.307,3.316,3.451,3.451,0,0,0,3.387,3.4A3.256,3.256,0,0,0,25.726,47.3,3.451,3.451,0,0,0,22.339,43.9Zm13.43,3.519a3.256,3.256,0,0,0-3.307,3.316,3.451,3.451,0,0,0,3.387,3.4,3.256,3.256,0,0,0,3.307-3.316A3.451,3.451,0,0,0,35.768,47.417Z" transform="translate(96.341 43.02) rotate(30)"/><path class="d" d="M92.475,29.974l-4.465-2.49h0L47.826,4.852h-.491a4.687,4.687,0,0,0-.848-.272H44.835a5.171,5.171,0,0,0-.893.272h-.491L3.267,27.485a4.558,4.558,0,0,0,0,7.876l11.118,6.247V63.064a13.488,13.488,0,0,0,13.395,13.58H63.5a13.488,13.488,0,0,0,13.395-13.58V41.608l8.93-5.07V49.484a4.465,4.465,0,1,0,8.93,0V33.912a4.537,4.537,0,0,0-2.277-3.938ZM67.963,63.064A4.5,4.5,0,0,1,63.5,67.59H27.779a4.5,4.5,0,0,1-4.465-4.527V46.632L43.451,57.949l.67.272h.4a4.405,4.405,0,0,0,1.116,0h0a4.4,4.4,0,0,0,1.116,0h.4a2.083,2.083,0,0,0,.67-.272L67.963,46.632ZM45.638,48.85,14.652,31.377,45.638,13.9,76.625,31.377Z" transform="translate(13.32 660.17)"/><path class="d" d="M42.675,15.135a2.432,2.432,0,0,0-1.933-.945H13.825V12.946A4.964,4.964,0,0,1,17.4,8.169a3.64,3.64,0,0,0,2.447,1.045h2.447a3.7,3.7,0,0,0,3.671-3.732A3.7,3.7,0,0,0,22.292,1.75H19.845a3.625,3.625,0,0,0-2.863,1.418,9.908,9.908,0,0,0-8.051,9.778V14.19H6.484a2.432,2.432,0,0,0-1.933.945A2.519,2.519,0,0,0,4.037,17.3l1.517,6.195a7.385,7.385,0,0,0,6.069,5.523l1.909,17.415H11.378a2.488,2.488,0,0,0,0,4.976h24.47a2.488,2.488,0,0,0,0-4.976H33.695L35.6,29.018a7.388,7.388,0,0,0,6-5.548l1.591-6.17A2.519,2.519,0,0,0,42.675,15.135Zm-13.923,31.4H18.475L16.566,29.117H30.661Zm8.1-24.257A2.454,2.454,0,0,1,34.4,24.166H12.749A2.454,2.454,0,0,1,10.3,22.275l-.685-3.11H37.61Z" transform="translate(1290.577 567.332)"/></g></svg>