<svg xmlns="http://www.w3.org/2000/svg" width="28" height="32" viewBox="0 0 28 32"><defs><style>.a{fill:#fff;}</style></defs><path class="a" d="M28.853,13.666l-16.4-9.85a5.578,5.578,0,0,0-5.833.017A6.144,6.144,0,0,0,3.75,9.15V28.921A5.947,5.947,0,0,0,9.555,35a5.62,5.62,0,0,0,2.9-.818l16.4-9.85a6.229,6.229,0,0,0,0-10.525Zm-1.7,7.45-16.4,9.992a2.348,2.348,0,0,1-2.41,0,2.549,2.549,0,0,1-1.205-2.187V9.079A2.549,2.549,0,0,1,8.35,6.892a2.474,2.474,0,0,1,1.2-.338,2.523,2.523,0,0,1,1.205.338l16.4,9.921a2.586,2.586,0,0,1,0,4.374Z" transform="translate(-3.75 -3.002)"/></svg>