<svg xmlns="http://www.w3.org/2000/svg" width="14" height="12" viewBox="0 0 14 12"><path class="a" d="M15.795,8.529,10.195,3.2a.726.726,0,0,0-.763-.145A.667.667,0,0,0,9,3.667V6.03a7.493,7.493,0,0,0-7,7.3v1a.67.67,0,0,0,.47.63.722.722,0,0,0,.779-.216,8.158,8.158,0,0,1,5.521-2.7c.035,0,.122-.011.23-.017v2.3a.667.667,0,0,0,.432.616.726.726,0,0,0,.763-.145l5.6-5.333a.644.644,0,0,0,0-.943Zm-5.395,4.2V11.333a.684.684,0,0,0-.7-.667c-.178,0-.907.033-1.093.057a10.083,10.083,0,0,0-5.171,1.965A6.2,6.2,0,0,1,9.7,7.333a.684.684,0,0,0,.7-.667V5.276L14.31,9Z" transform="translate(-2 -3)"/></svg>
